<?xml version="1.0" encoding="UTF-8"?>
<svg enable-background="new 0 0 580 580" version="1.1" viewBox="0 0 580 580" xml:space="preserve" xmlns="http://www.w3.org/2000/svg" xmlns:cc="http://creativecommons.org/ns#" xmlns:dc="http://purl.org/dc/elements/1.1/" xmlns:rdf="http://www.w3.org/1999/02/22-rdf-syntax-ns#"><metadata><rdf:RDF><cc:Work rdf:about=""><dc:format>image/svg+xml</dc:format><dc:type rdf:resource="http://purl.org/dc/dcmitype/StillImage"/><dc:title/></cc:Work></rdf:RDF></metadata><g transform="translate(-1.085 1.2103)" fill-opacity="param(fill-opacity)" stroke="param(outline) #FFF" stroke-opacity="param(outline-opacity)" stroke-width="param(outline-width) 0"><path d="m189.51 321.81c0.49797 40.599-21.911 71.719-48.944 71.732-27.034 0.0131-48.958-32.078-48.976-71.686-0.01746-39.608 23.288-72.134 48.913-71.778 25.625 0.35544 48.509 31.133 49.007 71.732z" fill="param(fill) #000"/><path d="m268.69 167.57c0.49797 40.599-21.911 71.719-48.944 71.732-27.034 0.0131-48.958-32.078-48.976-71.686-0.0175-39.608 23.288-72.134 48.913-71.778 25.625 0.35544 48.509 31.133 49.007 71.732z" fill="param(fill) #000"/><path d="m388.79 112.22c0.49797 40.599-21.911 71.719-48.944 71.732-27.034 0.0131-48.958-32.078-48.976-71.686-0.0175-39.607 23.288-72.134 48.913-71.778 25.625 0.35544 48.509 31.133 49.007 71.732z" fill="param(fill) #000"/><path d="m490.57 252.11c0.49797 40.599-21.911 71.719-48.944 71.732-27.034 0.0131-48.958-32.078-48.976-71.686-0.0175-39.607 23.288-72.134 48.913-71.778 25.625 0.35544 48.509 31.133 49.007 71.732z" fill="param(fill) #000"/><path d="m241.89 353.41c19.386-31.246 25.614-63.595 50.407-68.839 24.793-5.2443 38.594-1.1993 63.984 15.674 25.391 16.873 78.415 73.77 87.794 92.158s10.045 35.756 8.0847 53.178-8.8783 33.037-20.073 40.599c-11.195 7.5624-25.166 10.193-33.454 5.0606-8.2881-5.1328-4.6011-15.415-9.7316-18.587-6.1067 3.4424-6.743 17.448-7.6616 21.658-4.8184 19.968-62.604 29.002-79.645 20.018-17.041-8.9838-12.624-14.661-17.587-16.918-6.1919-2.9845-5.4573 8.8477-6.7104 13.662-2.4014 7.8884-7.9528 17.695-16.072 21.38-13.349 6.0577-30.541 7.3461-43.856-3.2592-13.316-10.605-24.341-21.391-27.024-54.587-2.6826-33.196 32.159-89.95 51.545-121.2z"/></g></svg>